<svg width="103" height="147" viewBox="0 0 103 147" fill="none" xmlns="http://www.w3.org/2000/svg">
<g clip-path="url(#clip0_0_90)" filter="url(#filter0_d_0_90)">
<path d="M82.0685 41.468C82.4724 41.4694 82.8165 41.656 83.1009 42.0278C83.3853 42.3996 83.5266 42.8475 83.5247 43.3716C83.5229 43.8956 83.3784 44.3425 83.0914 44.7123C82.8044 45.082 82.4589 45.2662 82.0551 45.2648L81.8837 45.2641L80.5346 55.0777C80.472 55.5323 80.3031 55.9074 80.0277 56.2031C79.7524 56.4987 79.4395 56.6459 79.089 56.6447L64.46 56.5929C64.1095 56.5916 63.7976 56.4422 63.5244 56.1446C63.2511 55.847 63.0849 55.4707 63.0255 55.0157L61.746 45.1928L61.5745 45.1922C61.1707 45.1908 60.8266 45.0042 60.5422 44.6324C60.2578 44.2606 60.1165 43.8127 60.1183 43.2887C60.1202 42.7646 60.2646 42.3177 60.5517 41.948C60.8387 41.5782 61.1841 41.394 61.588 41.3955L82.0685 41.468ZM65.6261 53.2748C65.8242 53.2557 65.9904 53.1451 66.1244 52.9429C66.2585 52.7406 66.3183 52.511 66.304 52.2538L65.9601 46.0828C65.9458 45.8257 65.8608 45.6103 65.7053 45.4367C65.5497 45.2632 65.3728 45.1859 65.1746 45.205C64.9765 45.2241 64.8103 45.3347 64.6763 45.5369C64.5422 45.7391 64.4824 45.9688 64.4967 46.2259L64.8406 52.397C64.8549 52.6442 64.9323 52.8521 65.0727 53.0207C65.213 53.1893 65.3784 53.2739 65.5689 53.2746L65.6261 53.2748ZM70.3267 52.3422L70.3486 46.1725C70.3495 45.9154 70.2779 45.6927 70.1338 45.5043C69.9897 45.316 69.8186 45.2214 69.6205 45.2207C69.4224 45.22 69.2506 45.3133 69.1052 45.5007C68.9597 45.688 68.8866 45.9102 68.8857 46.1673L68.8638 52.3371C68.8629 52.5941 68.9345 52.8169 69.0786 53.0052C69.2227 53.1936 69.3938 53.2881 69.5919 53.2888C69.79 53.2895 69.9618 53.1962 70.1072 53.0089C70.2526 52.8215 70.3258 52.5993 70.3267 52.3422ZM74.7154 52.3578L74.7372 46.188C74.7382 45.931 74.6666 45.7082 74.5225 45.5199C74.3784 45.3315 74.2073 45.237 74.0092 45.2363C73.8111 45.2356 73.6393 45.3289 73.4939 45.5162C73.3484 45.7036 73.2753 45.9258 73.2744 46.1829L73.2525 52.3526C73.2516 52.6097 73.3232 52.8324 73.4673 53.0208C73.6114 53.2091 73.7825 53.3037 73.9806 53.3044C74.1787 53.3051 74.3505 53.2118 74.4959 53.0244C74.6413 52.8371 74.7145 52.6149 74.7154 52.3578ZM78.7381 52.4462L79.1257 46.2777C79.1418 46.0207 79.0836 45.7906 78.951 45.5875C78.8184 45.3843 78.653 45.2725 78.455 45.252C78.257 45.2315 78.0796 45.3075 77.9227 45.48C77.7659 45.6525 77.6795 45.8672 77.6633 46.1242L77.2757 52.2927C77.2596 52.5497 77.3178 52.7798 77.4504 52.983C77.5831 53.1861 77.7484 53.2979 77.9464 53.3184L78.0036 53.3186C78.194 53.3193 78.3601 53.2358 78.5016 53.0683C78.6432 52.9007 78.722 52.6933 78.7381 52.4462ZM65.5902 34.3499L64.5057 40.4566L62.9971 40.4513L64.1746 33.9148C64.3224 33.0452 64.664 32.337 65.1993 31.7902C65.7346 31.2433 66.3451 30.9711 67.0308 30.9735L68.9394 30.9803C68.9403 30.7232 69.0135 30.501 69.1589 30.3136C69.3044 30.1263 69.4761 30.033 69.6742 30.0337L74.0629 30.0492C74.261 30.0499 74.4321 30.1445 74.5762 30.3328C74.7203 30.5212 74.7919 30.7439 74.791 31.001L76.6997 31.0078C77.3854 31.0102 77.994 31.2867 78.5254 31.8374C79.0568 32.388 79.3933 33.0986 79.535 33.9692L80.6662 40.5138L79.1575 40.5085L78.1163 34.3943C78.034 33.959 77.8619 33.6024 77.6001 33.3246C77.3382 33.0468 77.0358 32.9073 76.6929 32.9061L74.7843 32.8994C74.7834 33.1564 74.7102 33.3787 74.5648 33.566C74.4194 33.7534 74.2476 33.8467 74.0495 33.846L69.6608 33.8304C69.4627 33.8297 69.2916 33.7352 69.1475 33.5468C69.0034 33.3584 68.9318 33.1357 68.9327 32.8787L67.0241 32.8719C66.6812 32.8707 66.3779 33.008 66.114 33.2839C65.8502 33.5599 65.6756 33.9152 65.5902 34.3499Z" fill="#FFA451"/>
</g>
<defs>
<filter id="filter0_d_0_90" x="0.0712891" y="0" width="143.5" height="146.66" filterUnits="userSpaceOnUse" color-interpolation-filters="sRGB">
<feFlood flood-opacity="0" result="BackgroundImageFix"/>
<feColorMatrix in="SourceAlpha" type="matrix" values="0 0 0 0 0 0 0 0 0 0 0 0 0 0 0 0 0 0 127 0" result="hardAlpha"/>
<feOffset dy="30"/>
<feGaussianBlur stdDeviation="30"/>
<feColorMatrix type="matrix" values="0 0 0 0 0 0 0 0 0 0 0 0 0 0 0 0 0 0 0.2 0"/>
<feBlend mode="normal" in2="BackgroundImageFix" result="effect1_dropShadow_0_90"/>
<feBlend mode="normal" in="SourceGraphic" in2="effect1_dropShadow_0_90" result="shape"/>
</filter>
<clipPath id="clip0_0_90">
<rect width="23.4065" height="26.5775" fill="white" transform="translate(60.1654 30) rotate(0.202891)"/>
</clipPath>
</defs>
</svg>
