<svg width="23" height="12" viewBox="0 0 23 12" fill="none" xmlns="http://www.w3.org/2000/svg">
<rect width="23" height="12" fill="#F5F5F5"/>
<g id="Group 63">
<g id="iPhone 11 Pro / X - 7" filter="url(#filter0_dii_0_1)">
<rect x="-38.0113" y="-78" width="405" height="844" rx="32" transform="rotate(0.202891 -38.0113 -78)" fill="white"/>
<g id="Home screen one">
<g clip-path="url(#clip0_0_1)">
<rect x="-23.1359" y="-58" width="375" height="812" rx="32" transform="rotate(0.202891 -23.1359 -58)" fill="white"/>
<g id="Group 4">
<g id="Group">
<path id="Vector" d="M0.653689 1.45962C0.65498 1.09495 0.801084 0.745725 1.05986 0.488777C1.31863 0.231829 1.66888 0.0882029 2.03355 0.0894943L21.2834 0.157661C21.6481 0.158952 21.9973 0.305056 22.2543 0.56383C22.5112 0.822604 22.6548 1.17285 22.6536 1.53752C22.6523 1.90219 22.5062 2.25141 22.2474 2.50836C21.9886 2.76531 21.6384 2.90893 21.2737 2.90764L2.02381 2.83948C1.65914 2.83819 1.30992 2.69208 1.05297 2.43331C0.796024 2.17453 0.652398 1.82429 0.653689 1.45962Z" fill="#070648"/>
<path id="Vector_2" d="M2.00434 8.33945C1.63967 8.33816 1.28942 8.48178 1.03064 8.73873C0.771871 8.99568 0.625767 9.3449 0.624476 9.70957C0.623185 10.0742 0.766811 10.4245 1.02376 10.6833C1.28071 10.942 1.62993 11.0881 1.9946 11.0894L12.9945 11.1284C13.3592 11.1297 13.7094 10.986 13.9682 10.7291C14.227 10.4722 14.3731 10.1229 14.3744 9.75826C14.3757 9.39359 14.2321 9.04334 13.9751 8.78457C13.7182 8.5258 13.3689 8.37969 13.0043 8.3784L2.00434 8.33945Z" fill="#070648"/>
</g>
</g>
</g>
</g>
</g>
</g>
<defs>
<filter id="filter0_dii_0_1" x="-81" y="-98" width="567.986" height="1005.43" filterUnits="userSpaceOnUse" color-interpolation-filters="sRGB">
<feFlood flood-opacity="0" result="BackgroundImageFix"/>
<feColorMatrix in="SourceAlpha" type="matrix" values="0 0 0 0 0 0 0 0 0 0 0 0 0 0 0 0 0 0 127 0" result="hardAlpha"/>
<feOffset dx="40" dy="60"/>
<feGaussianBlur stdDeviation="40"/>
<feColorMatrix type="matrix" values="0 0 0 0 0.219608 0 0 0 0 0.262745 0 0 0 0 0.65098 0 0 0 0.05 0"/>
<feBlend mode="normal" in2="BackgroundImageFix" result="effect1_dropShadow_0_1"/>
<feBlend mode="normal" in="SourceGraphic" in2="effect1_dropShadow_0_1" result="shape"/>
<feColorMatrix in="SourceAlpha" type="matrix" values="0 0 0 0 0 0 0 0 0 0 0 0 0 0 0 0 0 0 127 0" result="hardAlpha"/>
<feOffset dx="10" dy="2"/>
<feGaussianBlur stdDeviation="10"/>
<feComposite in2="hardAlpha" operator="arithmetic" k2="-1" k3="1"/>
<feColorMatrix type="matrix" values="0 0 0 0 1 0 0 0 0 1 0 0 0 0 1 0 0 0 1 0"/>
<feBlend mode="normal" in2="shape" result="effect2_innerShadow_0_1"/>
<feColorMatrix in="SourceAlpha" type="matrix" values="0 0 0 0 0 0 0 0 0 0 0 0 0 0 0 0 0 0 127 0" result="hardAlpha"/>
<feOffset dx="-2" dy="-10"/>
<feGaussianBlur stdDeviation="2"/>
<feComposite in2="hardAlpha" operator="arithmetic" k2="-1" k3="1"/>
<feColorMatrix type="matrix" values="0 0 0 0 1 0 0 0 0 1 0 0 0 0 1 0 0 0 1 0"/>
<feBlend mode="normal" in2="effect2_innerShadow_0_1" result="effect3_innerShadow_0_1"/>
</filter>
<clipPath id="clip0_0_1">
<rect x="-23.1359" y="-58" width="375" height="812" rx="32" transform="rotate(0.202891 -23.1359 -58)" fill="white"/>
</clipPath>
</defs>
</svg>
