<svg width="17" height="17" viewBox="0 0 17 17" fill="none" xmlns="http://www.w3.org/2000/svg">
<g clip-path="url(#clip0_0_13)">
<path fill-rule="evenodd" clip-rule="evenodd" d="M10.472 10.6369C10.5652 10.5442 10.6758 10.4709 10.7974 10.421C10.9189 10.3711 11.0491 10.3456 11.1806 10.3461C11.312 10.3466 11.442 10.3729 11.5632 10.4237C11.6844 10.4744 11.7945 10.5486 11.887 10.6419L15.7234 14.5055C15.9103 14.6937 16.0149 14.9484 16.0141 15.2137C16.0132 15.4789 15.907 15.733 15.7188 15.92C15.5307 16.107 15.2759 16.2115 15.0107 16.2107C14.7454 16.2098 14.4913 16.1037 14.3044 15.9155L10.468 12.0519C10.3754 11.9587 10.302 11.8481 10.2521 11.7265C10.2022 11.605 10.1768 11.4748 10.1772 11.3433C10.1777 11.2119 10.2041 11.0819 10.2548 10.9607C10.3056 10.8395 10.3797 10.7294 10.473 10.6369L10.472 10.6369Z" fill="#86869E"/>
<path fill-rule="evenodd" clip-rule="evenodd" d="M6.52453 12.1809C7.24679 12.1835 7.96249 12.0437 8.63076 11.7697C9.29902 11.4957 9.90677 11.0927 10.4193 10.5838C10.9318 10.0749 11.3391 9.46998 11.6179 8.80368C11.8966 8.13737 12.0414 7.42268 12.044 6.70041C12.0465 5.97815 11.9068 5.26245 11.6328 4.59418C11.3587 3.92592 10.9558 3.31817 10.4468 2.80564C9.93793 2.29312 9.33305 1.88585 8.66674 1.60708C8.00044 1.32832 7.28575 1.18353 6.56348 1.18097C5.1048 1.1758 3.70381 1.75031 2.66871 2.7781C1.63362 3.80589 1.0492 5.20278 1.04404 6.66146C1.03887 8.12014 1.61338 9.52113 2.64117 10.5562C3.66896 11.5913 5.06585 12.1757 6.52453 12.1809ZM13.044 6.70395C13.0379 8.42785 12.3472 10.0787 11.1239 11.2934C9.9006 12.508 8.24488 13.187 6.52099 13.1809C4.79709 13.1748 3.14623 12.4841 1.93156 11.2608C0.716901 10.0375 0.0379406 8.38182 0.0440451 6.65792C0.0501497 4.93402 0.740819 3.28316 1.96411 2.06849C3.18741 0.853832 4.84313 0.174872 6.56702 0.180976C8.29092 0.187081 9.94178 0.877751 11.1564 2.10105C12.3711 3.32434 13.0501 4.98006 13.044 6.70395Z" fill="#86869E"/>
</g>
<defs>
<clipPath id="clip0_0_13">
<rect width="16" height="16" fill="white" transform="translate(0.0670624 0.157959) rotate(0.202891)"/>
</clipPath>
</defs>
</svg>
